<svg xmlns="http://www.w3.org/2000/svg" xmlns:xlink="http://www.w3.org/1999/xlink" width="200" zoomAndPan="magnify" viewBox="0 0 150 52.499999" height="70" preserveAspectRatio="xMidYMid meet" version="1.0"><defs><g/><clipPath id="bfb4639b16"><path d="M 9.425781 11.574219 L 132.75 11.574219 L 132.75 44 L 9.425781 44 Z M 9.425781 11.574219 " clip-rule="nonzero"/></clipPath></defs><g fill="#6c9dd6" fill-opacity="1"><g transform="translate(20.152048, 32.317215)"><g><path d="M 3.65625 0 L 1.78125 0 L 1.78125 -14.171875 L 3.65625 -14.171875 Z M 3.65625 0 "/></g></g></g><g fill="#6c9dd6" fill-opacity="1"><g transform="translate(25.572815, 32.317215)"><g><path d="M 5.828125 -6.3125 C 4.222656 -6.78125 3.054688 -7.347656 2.328125 -8.015625 C 1.597656 -8.691406 1.234375 -9.519531 1.234375 -10.5 C 1.234375 -11.613281 1.675781 -12.535156 2.5625 -13.265625 C 3.457031 -14.003906 4.617188 -14.375 6.046875 -14.375 C 7.015625 -14.375 7.878906 -14.179688 8.640625 -13.796875 C 9.410156 -13.421875 10.003906 -12.898438 10.421875 -12.234375 C 10.835938 -11.578125 11.046875 -10.859375 11.046875 -10.078125 L 9.171875 -10.078125 C 9.171875 -10.929688 8.894531 -11.601562 8.34375 -12.09375 C 7.800781 -12.582031 7.035156 -12.828125 6.046875 -12.828125 C 5.117188 -12.828125 4.394531 -12.625 3.875 -12.21875 C 3.363281 -11.8125 3.109375 -11.25 3.109375 -10.53125 C 3.109375 -9.957031 3.351562 -9.46875 3.84375 -9.0625 C 4.332031 -8.664062 5.164062 -8.300781 6.34375 -7.96875 C 7.53125 -7.644531 8.453125 -7.28125 9.109375 -6.875 C 9.773438 -6.476562 10.269531 -6.015625 10.59375 -5.484375 C 10.914062 -4.953125 11.078125 -4.328125 11.078125 -3.609375 C 11.078125 -2.453125 10.628906 -1.53125 9.734375 -0.84375 C 8.835938 -0.15625 7.640625 0.1875 6.140625 0.1875 C 5.171875 0.1875 4.265625 0.00390625 3.421875 -0.359375 C 2.578125 -0.734375 1.925781 -1.242188 1.46875 -1.890625 C 1.007812 -2.546875 0.78125 -3.285156 0.78125 -4.109375 L 2.65625 -4.109375 C 2.65625 -3.253906 2.972656 -2.578125 3.609375 -2.078125 C 4.242188 -1.578125 5.085938 -1.328125 6.140625 -1.328125 C 7.128906 -1.328125 7.882812 -1.53125 8.40625 -1.9375 C 8.9375 -2.34375 9.203125 -2.890625 9.203125 -3.578125 C 9.203125 -4.273438 8.957031 -4.8125 8.46875 -5.1875 C 7.976562 -5.570312 7.097656 -5.945312 5.828125 -6.3125 Z M 5.828125 -6.3125 "/></g></g></g><g fill="#6c9dd6" fill-opacity="1"><g transform="translate(37.39728, 32.317215)"><g><path d="M 9.46875 -3.703125 L 3.53125 -3.703125 L 2.203125 0 L 0.265625 0 L 5.6875 -14.171875 L 7.328125 -14.171875 L 12.75 0 L 10.828125 0 Z M 4.09375 -5.234375 L 8.921875 -5.234375 L 6.5 -11.859375 Z M 4.09375 -5.234375 "/></g></g></g><g fill="#6c9dd6" fill-opacity="1"><g transform="translate(50.39932, 32.317215)"><g><path d="M 9.46875 -3.703125 L 3.53125 -3.703125 L 2.203125 0 L 0.265625 0 L 5.6875 -14.171875 L 7.328125 -14.171875 L 12.75 0 L 10.828125 0 Z M 4.09375 -5.234375 L 8.921875 -5.234375 L 6.5 -11.859375 Z M 4.09375 -5.234375 "/></g></g></g><g fill="#6c9dd6" fill-opacity="1"><g transform="translate(63.401361, 32.317215)"><g><path d="M 12.078125 -4.5 C 11.898438 -3 11.34375 -1.84375 10.40625 -1.03125 C 9.476562 -0.21875 8.242188 0.1875 6.703125 0.1875 C 5.023438 0.1875 3.679688 -0.410156 2.671875 -1.609375 C 1.660156 -2.804688 1.15625 -4.410156 1.15625 -6.421875 L 1.15625 -7.78125 C 1.15625 -9.101562 1.390625 -10.265625 1.859375 -11.265625 C 2.328125 -12.265625 2.992188 -13.03125 3.859375 -13.5625 C 4.722656 -14.101562 5.722656 -14.375 6.859375 -14.375 C 8.367188 -14.375 9.578125 -13.953125 10.484375 -13.109375 C 11.390625 -12.265625 11.921875 -11.101562 12.078125 -9.625 L 10.1875 -9.625 C 10.03125 -10.75 9.679688 -11.5625 9.140625 -12.0625 C 8.597656 -12.570312 7.835938 -12.828125 6.859375 -12.828125 C 5.671875 -12.828125 4.734375 -12.382812 4.046875 -11.5 C 3.367188 -10.625 3.03125 -9.367188 3.03125 -7.734375 L 3.03125 -6.359375 C 3.03125 -4.828125 3.351562 -3.601562 4 -2.6875 C 4.644531 -1.78125 5.546875 -1.328125 6.703125 -1.328125 C 7.734375 -1.328125 8.523438 -1.5625 9.078125 -2.03125 C 9.640625 -2.507812 10.007812 -3.332031 10.1875 -4.5 Z M 12.078125 -4.5 "/></g></g></g><g fill="#6c9dd6" fill-opacity="1"><g transform="translate(76.37421, 32.317215)"><g/></g></g><g fill="#6c9dd6" fill-opacity="1"><g transform="translate(81.308373, 32.317215)"><g><path d="M 12.53125 0 L 10.65625 0 L 3.53125 -10.921875 L 3.53125 0 L 1.640625 0 L 1.640625 -14.171875 L 3.53125 -14.171875 L 10.671875 -3.203125 L 10.671875 -14.171875 L 12.53125 -14.171875 Z M 12.53125 0 "/></g></g></g><g fill="#6c9dd6" fill-opacity="1"><g transform="translate(95.517189, 32.317215)"><g><path d="M 3.65625 0 L 1.78125 0 L 1.78125 -14.171875 L 3.65625 -14.171875 Z M 3.65625 0 "/></g></g></g><g fill="#6c9dd6" fill-opacity="1"><g transform="translate(100.937955, 32.317215)"><g><path d="M 12.53125 0 L 10.65625 0 L 3.53125 -10.921875 L 3.53125 0 L 1.640625 0 L 1.640625 -14.171875 L 3.53125 -14.171875 L 10.671875 -3.203125 L 10.671875 -14.171875 L 12.53125 -14.171875 Z M 12.53125 0 "/></g></g></g><g fill="#6c9dd6" fill-opacity="1"><g transform="translate(115.146771, 32.317215)"><g><path d="M 12.546875 -6.625 C 12.546875 -5.238281 12.3125 -4.023438 11.84375 -2.984375 C 11.375 -1.953125 10.710938 -1.164062 9.859375 -0.625 C 9.003906 -0.0820312 8.003906 0.1875 6.859375 0.1875 C 5.742188 0.1875 4.753906 -0.0820312 3.890625 -0.625 C 3.023438 -1.175781 2.351562 -1.957031 1.875 -2.96875 C 1.40625 -3.988281 1.164062 -5.164062 1.15625 -6.5 L 1.15625 -7.53125 C 1.15625 -8.882812 1.390625 -10.082031 1.859375 -11.125 C 2.328125 -12.175781 2.992188 -12.976562 3.859375 -13.53125 C 4.734375 -14.09375 5.726562 -14.375 6.84375 -14.375 C 7.976562 -14.375 8.976562 -14.097656 9.84375 -13.546875 C 10.707031 -12.992188 11.375 -12.195312 11.84375 -11.15625 C 12.3125 -10.113281 12.546875 -8.90625 12.546875 -7.53125 Z M 10.6875 -7.546875 C 10.6875 -9.222656 10.347656 -10.507812 9.671875 -11.40625 C 9.003906 -12.3125 8.0625 -12.765625 6.84375 -12.765625 C 5.664062 -12.765625 4.734375 -12.3125 4.046875 -11.40625 C 3.367188 -10.507812 3.023438 -9.265625 3.015625 -7.671875 L 3.015625 -6.625 C 3.015625 -5 3.351562 -3.71875 4.03125 -2.78125 C 4.71875 -1.851562 5.660156 -1.390625 6.859375 -1.390625 C 8.066406 -1.390625 9 -1.828125 9.65625 -2.703125 C 10.320312 -3.585938 10.664062 -4.851562 10.6875 -6.5 Z M 10.6875 -7.546875 "/></g></g></g><g fill="#000000" fill-opacity="1"><g transform="translate(20.650428, 32.317215)"><g><path d="M 3.65625 0 L 1.78125 0 L 1.78125 -14.171875 L 3.65625 -14.171875 Z M 3.65625 0 "/></g></g></g><g fill="#000000" fill-opacity="1"><g transform="translate(26.071194, 32.317215)"><g><path d="M 5.828125 -6.3125 C 4.222656 -6.78125 3.054688 -7.347656 2.328125 -8.015625 C 1.597656 -8.691406 1.234375 -9.519531 1.234375 -10.5 C 1.234375 -11.613281 1.675781 -12.535156 2.5625 -13.265625 C 3.457031 -14.003906 4.617188 -14.375 6.046875 -14.375 C 7.015625 -14.375 7.878906 -14.179688 8.640625 -13.796875 C 9.410156 -13.421875 10.003906 -12.898438 10.421875 -12.234375 C 10.835938 -11.578125 11.046875 -10.859375 11.046875 -10.078125 L 9.171875 -10.078125 C 9.171875 -10.929688 8.894531 -11.601562 8.34375 -12.09375 C 7.800781 -12.582031 7.035156 -12.828125 6.046875 -12.828125 C 5.117188 -12.828125 4.394531 -12.625 3.875 -12.21875 C 3.363281 -11.8125 3.109375 -11.25 3.109375 -10.53125 C 3.109375 -9.957031 3.351562 -9.46875 3.84375 -9.0625 C 4.332031 -8.664062 5.164062 -8.300781 6.34375 -7.96875 C 7.53125 -7.644531 8.453125 -7.28125 9.109375 -6.875 C 9.773438 -6.476562 10.269531 -6.015625 10.59375 -5.484375 C 10.914062 -4.953125 11.078125 -4.328125 11.078125 -3.609375 C 11.078125 -2.453125 10.628906 -1.53125 9.734375 -0.84375 C 8.835938 -0.15625 7.640625 0.1875 6.140625 0.1875 C 5.171875 0.1875 4.265625 0.00390625 3.421875 -0.359375 C 2.578125 -0.734375 1.925781 -1.242188 1.46875 -1.890625 C 1.007812 -2.546875 0.78125 -3.285156 0.78125 -4.109375 L 2.65625 -4.109375 C 2.65625 -3.253906 2.972656 -2.578125 3.609375 -2.078125 C 4.242188 -1.578125 5.085938 -1.328125 6.140625 -1.328125 C 7.128906 -1.328125 7.882812 -1.53125 8.40625 -1.9375 C 8.9375 -2.34375 9.203125 -2.890625 9.203125 -3.578125 C 9.203125 -4.273438 8.957031 -4.8125 8.46875 -5.1875 C 7.976562 -5.570312 7.097656 -5.945312 5.828125 -6.3125 Z M 5.828125 -6.3125 "/></g></g></g><g fill="#000000" fill-opacity="1"><g transform="translate(37.89566, 32.317215)"><g><path d="M 9.46875 -3.703125 L 3.53125 -3.703125 L 2.203125 0 L 0.265625 0 L 5.6875 -14.171875 L 7.328125 -14.171875 L 12.75 0 L 10.828125 0 Z M 4.09375 -5.234375 L 8.921875 -5.234375 L 6.5 -11.859375 Z M 4.09375 -5.234375 "/></g></g></g><g fill="#000000" fill-opacity="1"><g transform="translate(50.8977, 32.317215)"><g><path d="M 9.46875 -3.703125 L 3.53125 -3.703125 L 2.203125 0 L 0.265625 0 L 5.6875 -14.171875 L 7.328125 -14.171875 L 12.75 0 L 10.828125 0 Z M 4.09375 -5.234375 L 8.921875 -5.234375 L 6.5 -11.859375 Z M 4.09375 -5.234375 "/></g></g></g><g fill="#000000" fill-opacity="1"><g transform="translate(63.89974, 32.317215)"><g><path d="M 12.078125 -4.5 C 11.898438 -3 11.34375 -1.84375 10.40625 -1.03125 C 9.476562 -0.21875 8.242188 0.1875 6.703125 0.1875 C 5.023438 0.1875 3.679688 -0.410156 2.671875 -1.609375 C 1.660156 -2.804688 1.15625 -4.410156 1.15625 -6.421875 L 1.15625 -7.78125 C 1.15625 -9.101562 1.390625 -10.265625 1.859375 -11.265625 C 2.328125 -12.265625 2.992188 -13.03125 3.859375 -13.5625 C 4.722656 -14.101562 5.722656 -14.375 6.859375 -14.375 C 8.367188 -14.375 9.578125 -13.953125 10.484375 -13.109375 C 11.390625 -12.265625 11.921875 -11.101562 12.078125 -9.625 L 10.1875 -9.625 C 10.03125 -10.75 9.679688 -11.5625 9.140625 -12.0625 C 8.597656 -12.570312 7.835938 -12.828125 6.859375 -12.828125 C 5.671875 -12.828125 4.734375 -12.382812 4.046875 -11.5 C 3.367188 -10.625 3.03125 -9.367188 3.03125 -7.734375 L 3.03125 -6.359375 C 3.03125 -4.828125 3.351562 -3.601562 4 -2.6875 C 4.644531 -1.78125 5.546875 -1.328125 6.703125 -1.328125 C 7.734375 -1.328125 8.523438 -1.5625 9.078125 -2.03125 C 9.640625 -2.507812 10.007812 -3.332031 10.1875 -4.5 Z M 12.078125 -4.5 "/></g></g></g><g fill="#000000" fill-opacity="1"><g transform="translate(76.872589, 32.317215)"><g/></g></g><g fill="#000000" fill-opacity="1"><g transform="translate(81.806752, 32.317215)"><g><path d="M 12.53125 0 L 10.65625 0 L 3.53125 -10.921875 L 3.53125 0 L 1.640625 0 L 1.640625 -14.171875 L 3.53125 -14.171875 L 10.671875 -3.203125 L 10.671875 -14.171875 L 12.53125 -14.171875 Z M 12.53125 0 "/></g></g></g><g fill="#000000" fill-opacity="1"><g transform="translate(96.015569, 32.317215)"><g><path d="M 3.65625 0 L 1.78125 0 L 1.78125 -14.171875 L 3.65625 -14.171875 Z M 3.65625 0 "/></g></g></g><g fill="#000000" fill-opacity="1"><g transform="translate(101.436335, 32.317215)"><g><path d="M 12.53125 0 L 10.65625 0 L 3.53125 -10.921875 L 3.53125 0 L 1.640625 0 L 1.640625 -14.171875 L 3.53125 -14.171875 L 10.671875 -3.203125 L 10.671875 -14.171875 L 12.53125 -14.171875 Z M 12.53125 0 "/></g></g></g><g fill="#000000" fill-opacity="1"><g transform="translate(115.645151, 32.317215)"><g><path d="M 12.546875 -6.625 C 12.546875 -5.238281 12.3125 -4.023438 11.84375 -2.984375 C 11.375 -1.953125 10.710938 -1.164062 9.859375 -0.625 C 9.003906 -0.0820312 8.003906 0.1875 6.859375 0.1875 C 5.742188 0.1875 4.753906 -0.0820312 3.890625 -0.625 C 3.023438 -1.175781 2.351562 -1.957031 1.875 -2.96875 C 1.40625 -3.988281 1.164062 -5.164062 1.15625 -6.5 L 1.15625 -7.53125 C 1.15625 -8.882812 1.390625 -10.082031 1.859375 -11.125 C 2.328125 -12.175781 2.992188 -12.976562 3.859375 -13.53125 C 4.734375 -14.09375 5.726562 -14.375 6.84375 -14.375 C 7.976562 -14.375 8.976562 -14.097656 9.84375 -13.546875 C 10.707031 -12.992188 11.375 -12.195312 11.84375 -11.15625 C 12.3125 -10.113281 12.546875 -8.90625 12.546875 -7.53125 Z M 10.6875 -7.546875 C 10.6875 -9.222656 10.347656 -10.507812 9.671875 -11.40625 C 9.003906 -12.3125 8.0625 -12.765625 6.84375 -12.765625 C 5.664062 -12.765625 4.734375 -12.3125 4.046875 -11.40625 C 3.367188 -10.507812 3.023438 -9.265625 3.015625 -7.671875 L 3.015625 -6.625 C 3.015625 -5 3.351562 -3.71875 4.03125 -2.78125 C 4.71875 -1.851562 5.660156 -1.390625 6.859375 -1.390625 C 8.066406 -1.390625 9 -1.828125 9.65625 -2.703125 C 10.320312 -3.585938 10.664062 -4.851562 10.6875 -6.5 Z M 10.6875 -7.546875 "/></g></g></g><g clip-path="url(#bfb4639b16)"><path fill="#000000" d="M 132.371094 11.867188 L 16.988281 11.867188 C 16.953125 11.867188 16.929688 11.894531 16.898438 11.90625 C 16.882812 11.910156 16.867188 11.894531 16.847656 11.90625 L 9.578125 15.90625 C 9.484375 15.953125 9.425781 16.050781 9.425781 16.160156 L 9.425781 43.570312 C 9.425781 43.582031 9.4375 43.585938 9.441406 43.59375 C 9.441406 43.609375 9.429688 43.628906 9.4375 43.644531 C 9.453125 43.714844 9.503906 43.769531 9.5625 43.808594 C 9.570312 43.8125 9.566406 43.820312 9.570312 43.820312 C 9.617188 43.851562 9.667969 43.863281 9.71875 43.863281 L 125.097656 43.863281 C 125.148438 43.863281 125.195312 43.851562 125.238281 43.828125 L 132.507812 39.84375 C 132.523438 39.835938 132.527344 39.820312 132.539062 39.8125 C 132.5625 39.792969 132.578125 39.777344 132.59375 39.75 C 132.621094 39.714844 132.636719 39.675781 132.644531 39.632812 C 132.648438 39.617188 132.664062 39.605469 132.664062 39.589844 L 132.664062 12.160156 C 132.660156 12 132.53125 11.867188 132.371094 11.867188 Z M 132.078125 39.296875 L 17.28125 39.296875 L 17.28125 12.453125 L 132.078125 12.453125 Z M 132.078125 39.296875 " fill-opacity="1" fill-rule="nonzero"/></g></svg>